<?xml version="1.0" encoding="UTF-8"?><svg id="Layer_2" xmlns="http://www.w3.org/2000/svg" viewBox="0 0 401.79 398.51"><defs><style>.cls-1,.cls-2{stroke-width:0px;}.cls-2{fill:#fff;opacity:100%}path{opacity:33%;}</style></defs><g id="Layer_1-2"><path class="cls-1" d="M177.67,390.78c-.25-.66.8-.93,1.45-.96,2.52-.1,4.93-.68,7.2-1.7,2.07-.93,4.04-2.1,6.59-3.44.18,4.82-.21,9,1.36,12.95.13.33.19.61.22.88h79.79c.53-3.56,5.36-2.43,7.95-2.75,2.39-.29,2.67,1.1,2.73,2.75h115.74c0-36.33,0-72.65-.01-108.98,0-2.3.86-5.49-3.68-4.09-1.61.5-1.57-1.42-1.69-2.45-.78-6.63-4.01-11.9-8.84-16.32-1.06-.73-2.12-1.46-3.18-2.2-4.23-.68-8.23-2.36-12.75-1.68-7.75,1.15-12.83,5.85-17.22,11.73l.04-.05c-2.04,6.68-2.95,13.33.47,19.89,1.27,2.43-.16,2.82-2.18,2.89-4.07.13-8.1.94-11.37,3.32-3.93,2.86-4.49,1.75-4.88-2.55-.8-8.83-7.47-15.65-16.19-17.47-8.01-1.67-16.79,2.17-21.11,9.24-4.52,7.39-3.96,16.52,1.36,23.43.87,1.13,2.45,1.8,2.48,3.53-1.26.7-2.31-.15-3.43-.31-8.18-1.15-15.21.94-20.62,7.41-5.9,7.05-6.54,16.08-1.9,24.75.72,1.35,3.12,3.68-.88,3.44-7.44-.46-13.54,2.27-19.12,7.59,1.38-13.23-2.02-21.04-10.6-25.24-8.03-3.93-17.54-2.57-23.46,3.96-8.63,9.51-7.34,19.42.44,29.58-8.57-1.91-15.8-.45-22.81,5.12.58-11.38-3.07-19.33-12.43-23.78-9.31-4.43-17.57-1.56-25.31,5.27,2.36-14.66-4.17-25.24-16.32-27.07-7.67-1.16-14.28,1.33-19.05,7.48-5.01,6.45-5.94,13.7-2.39,21.15,1.56,3.27,1.26,4.53-2.61,4.16-3.72-.36-7.29.47-10.71,1.96-1.57.69-3.06.9-3.38-1.3-.84-5.8-3.35-10.89-7.46-15.76,13.71.3,21.83-4.6,24.44-14.12,2.51-9.18-1.44-18.55-9.72-22.99-8.24-4.43-18.26-2.45-24.45,4.82-6.64,7.79-6.11,16.88,1.89,28.02-7.02-2.22-13.44-1.42-19.52,2.02-1.85,1.04-2.87.67-2.78-1.57.32-7.89-3.79-13.56-9.24-18.57-1.5-.81-3-1.61-4.5-2.42-8.53-2.52-16.57-1.59-24.12,4.34.99-16.02-9.89-27.38-23.66-25.74C.66,299.86,0,300.59,0,308.31,0,338.38,0,368.45,0,398.51h180.81c-1.1-2.56-2.16-5.13-3.14-7.73ZM376.65,306.1c1.16-.57,2.7-.42,3.83-1.03,4.46-2.42,6.53-1.63,5.51,3.12.21,5.19-4.29,9.59-8.49,8.16-3.32-1.13-3.36-5.42-4.49-8.3-.88-2.25,2.35-1.31,3.65-1.95ZM325.12,318.3c2.2-1.18,3.06-.48,2.97,1.88-.03.83.15,1.69,0,2.48-.71,3.6,4.07,7.74.64,10.24-2.75,2.01-7.17,2.11-10.53,4-1.66.93-2.4.32-2.55-1.5-.54-6.53-3.91-11.48-8.85-15.9,6.32,2,12.44,1.97,18.34-1.19ZM303.69,356.93c.41-.2,1.37-.22,1.39-.15.95,3.78,2.01,7.56,2.62,11.4.35,2.17-1.87,1.84-3.19,2.28-2.66.89-5.31,1.79-7.96,2.69-.79-2.47-1.42-5-2.42-7.38-.89-2.13-2.18-4.08-3.66-6.79,4.86-.14,9.22-.09,13.22-2.04ZM251.8,366.09c-.99,6.63-1.59,12.06.78,17.29.84,1.85.5,2.82-1.71,2.81-3.57-.02-6.83,1.16-9.96,2.76-1.84.94-3.09,1.02-3.25-1.64-.35-5.71-2.96-10.42-7.82-15.23,8.66,1.71,15.51-.15,21.96-5.99ZM24.02,351.6c-2.27.46-4.53,1.01-6.77,1.62-1.57.43-2.58.07-2.98-1.6-.15-.64-.37-1.28-.57-1.91-2.1-6.45-2.08-6.4,4.22-8.89,2.13-.84,4.15-1.99,6.76-3.26.61,4.15-.12,7.87,1.24,11.37.67,1.71-.35,2.35-1.9,2.67ZM55.17,373.47c-1.64.45-5.76-5.43-4.81-7.81,1.47-3.69,6.41-4.56,8.99-4.41,4.17.25,1.21,5.89,3.66,8.6-1.47,3.92-5.15,2.89-7.84,3.63ZM91.55,395.06c-4.32-1.15-4.74-5.2-4.68-7.45.12-4.97,5.89-4.36,8.37-4.37,3.75,0,2.28,5.07,2.62,7.64.61,4.74-4.79,1.54-6.3,4.18ZM157.54,381.11c-4.59-.18-8.88.92-13.67,3.69-.16-6.49-2.05-11.55-5.85-16.99,7.7.5,14.06-1.23,20.18-7.24-1.71,7.22-1.31,12.82,1.51,18.15,1.24,2.36-.56,2.45-2.17,2.39Z"/><path class="cls-1" d="M61.53,189.77c-1.5-.81-3-1.61-4.5-2.42-5.8-6.22-8.9-13.28-6.2-21.83,3.18-10.08,13.78-15.67,23.84-12.8,9.9,2.82,15.79,12.63,13.77,22.93-2.01,10.23-11.99,16.74-23.03,14.99-1.31-.21-2.59-.58-3.89-.87Z"/><path class="cls-1" d="M32.41,131.45c10.26.05,19.16,9.07,19,19.25-.16,10.32-9.22,19.14-19.37,18.88-10.16-.26-18.7-8.92-18.75-19-.05-10.22,8.91-19.18,19.13-19.13Z"/><path class="cls-1" d="M354.37,141.48c-5.5,5.57-11.6,9.44-19.95,7.49-10.72-2.5-17.02-12.54-14.38-23.05,2.63-10.46,13.15-16.52,23.57-13.58,10.24,2.89,15.99,13.76,12.71,24.09-.55,1.74-1.33,3.41-2,5.11,0,0,.04-.05.04-.05Z"/><path class="cls-1" d="M218.52,198.63c-.08,9.78-8.55,18.13-18.29,18.05-9.78-.08-18.13-8.55-18.05-18.29.08-9.78,8.55-18.13,18.29-18.05,9.78.08,18.13,8.55,18.05,18.29Z"/><path class="cls-1" d="M276.48,183.73c-.16,9.71-8.87,18.16-18.48,17.91-9.72-.25-18.11-9.02-17.79-18.6.33-9.55,8.77-17.73,18.23-17.66,9.68.07,18.19,8.73,18.04,18.35Z"/><path class="cls-1" d="M376.64,94.26c.11,9.8-7.52,17.54-17.29,17.54-9.57,0-17.18-7.5-17.29-17.04-.11-9.8,7.52-17.54,17.29-17.54,9.57,0,17.18,7.5,17.29,17.04Z"/><path class="cls-1" d="M180.67,177.45c.02,9.4-6.98,16.41-16.38,16.38-9.38-.02-16.33-7.08-16.26-16.5.07-9.16,6.97-16.06,16.13-16.13,9.42-.07,16.48,6.88,16.51,16.25Z"/><path class="cls-1" d="M280.52,130.37c8.68.11,16.25,7.96,15.97,16.56-.27,8.5-7.88,15.83-16.31,15.72-8.68-.11-16.25-7.96-15.97-16.56.27-8.5,7.88-15.83,16.31-15.72Z"/><path class="cls-1" d="M387.47,133.68c-1.06-.73-2.12-1.46-3.18-2.2-9.81-10.7-10.18-22.41-1.01-30.72,3.63-3.29,8-4.72,12.75-4.99,3.62-.21,5.87.97,5.75,5.39-.26,9.47-.27,18.96,0,28.44.13,4.61-2.06,6-6,5.62-2.8-.27-5.54-1.01-8.31-1.54Z"/><path class="cls-1" d="M127.54,140.45c8.47.15,15.93,7.72,15.88,16.13-.05,8.63-8,16.34-16.5,16-8.52-.34-15.87-8.04-15.63-16.38.24-8.49,7.88-15.9,16.25-15.75Z"/><path class="cls-1" d="M106.36,134.48c.03,8.43-7.53,16.02-15.98,16.05-8.43.03-16.02-7.53-16.05-15.98-.03-8.43,7.54-16.02,15.98-16.05,8.43-.03,16.02,7.53,16.05,15.98Z"/><path class="cls-1" d="M396.14,57.75c-.18,8.66-7.75,15.89-16.28,15.54-8.52-.35-15.47-7.63-15.3-16.02.18-8.67,7.75-15.89,16.28-15.54,8.52.35,15.47,7.63,15.3,16.02Z"/><path class="cls-1" d="M54.54,97.98c8.73.09,15.38,6.85,15.35,15.6-.03,8.93-7,15.67-15.97,15.47-8.69-.2-15.24-7.08-15.1-15.85.14-8.7,6.97-15.31,15.73-15.22Z"/><path class="cls-1" d="M32.43,92.7c-.14,7.98-7.36,15.03-15.26,14.89-7.98-.14-15.03-7.36-14.89-15.26.14-7.98,7.36-15.03,15.26-14.89,7.98.14,15.03,7.36,14.89,15.26Z"/><path class="cls-1" d="M315.89,109.38c.07,8.17-6.25,14.6-14.41,14.67-8.17.07-14.6-6.25-14.67-14.41-.07-8.17,6.25-14.6,14.41-14.67,8.17-.07,14.6,6.25,14.67,14.41Z"/><path class="cls-1" d="M222.18,147.34c7.6-.11,14.4,6.64,14.35,14.25-.05,7.43-6.56,13.99-14,14.1-7.6.11-14.4-6.64-14.35-14.25.05-7.43,6.56-13.99,14-14.1Z"/><path class="cls-1" d="M336.25,72.32c.13,7.27-6.08,13.77-13.46,14.08-7.42.31-14.2-6.17-14.33-13.71-.14-7.48,6.46-14.13,13.96-14.08,7.33.05,13.7,6.36,13.83,13.71Z"/><path class="cls-1" d="M356.62,36.76c-.13,7.32-6.32,13.22-13.65,13.02-7.32-.2-13.16-6.44-12.89-13.77.26-7.12,6.26-12.84,13.39-12.77,7.33.07,13.28,6.18,13.15,13.52Z"/><path class="cls-1" d="M38.43,67.78c-6.84.04-12.37-5.47-12.34-12.31.02-6.84,5.59-12.31,12.44-12.22,6.63.09,11.99,5.43,12.09,12.06.11,6.84-5.35,12.43-12.19,12.47Z"/><path class="cls-1" d="M87.58,76.64c-.07,6.81-5.8,12.32-12.6,12.1-6.63-.21-11.92-5.73-11.85-12.35.07-6.81,5.8-12.32,12.6-12.1,6.63.21,11.92,5.73,11.85,12.35Z"/><path class="cls-1" d="M123.23,98.64c-.09,6.23-5.67,11.76-11.88,11.76-6.4,0-12.14-5.92-11.88-12.26.26-6.26,5.97-11.68,12.13-11.51,6.27.18,11.72,5.8,11.63,12.01Z"/><path class="cls-1" d="M196.6,141.25c-.37,6.05-5.64,10.77-11.73,10.53-6.26-.25-11.15-5.71-10.76-12,.39-6.24,5.96-11.02,12.23-10.5,6.03.5,10.64,5.88,10.26,11.97Z"/><path class="cls-1" d="M159.5,119.59c-.05,5.98-5.26,11.12-11.23,11.07-5.98-.05-11.12-5.26-11.07-11.23.05-5.98,5.26-11.12,11.23-11.07,5.98.05,11.12,5.26,11.07,11.23Z"/><path class="cls-1" d="M243.55,135.81c-5.94.09-10.46-4.31-10.5-10.23-.03-5.93,4.42-10.4,10.35-10.37,5.73.02,10.1,4.28,10.25,9.98.15,5.95-4.2,10.53-10.11,10.62Z"/><path class="cls-1" d="M69.62,19.69c-.09,5.84-4.83,10.31-10.7,10.08-5.63-.22-9.93-4.78-9.84-10.45.09-5.84,4.83-10.31,10.7-10.08,5.63.22,9.93,4.78,9.84,10.45Z"/><path class="cls-1" d="M307.57,4.21c5.9.11,10.25,4.7,10.08,10.65-.17,5.88-4.82,10.18-10.77,9.95-5.68-.22-9.87-4.66-9.83-10.4.05-5.91,4.58-10.31,10.53-10.2Z"/><path class="cls-1" d="M401.67,20.45c0,3.64-.05,7.29,0,10.93.04,3-1.51,3.69-4.15,3.15-5.97-1.22-10.52-7.2-10.54-13.96-.02-6.78,4.43-12.72,10.42-14.06,3.01-.67,4.37.38,4.29,3.5-.09,3.48-.02,6.96-.03,10.43Z"/><path class="cls-1" d="M1.01,129.4c0-4.32.06-8.63-.01-12.95-.06-3.72,1.68-3.9,4.32-2.3,5.71,3.46,8.83,8.69,8.89,15.22.06,6.53-3.01,11.8-8.65,15.36-2.8,1.77-4.66,1.67-4.57-2.39.1-4.31.02-8.63.02-12.95Z"/><path class="cls-1" d="M285.48,42.02c5.38.06,9.43,4.22,9.36,9.61-.06,5.38-4.22,9.43-9.61,9.36-5.38-.06-9.43-4.22-9.36-9.61.06-5.38,4.22-9.43,9.61-9.36Z"/><path class="cls-1" d="M273.56,88.35c.1,4.89-4.13,9.28-9.04,9.37-4.89.1-9.28-4.13-9.37-9.04-.1-4.89,4.13-9.28,9.04-9.37,4.89-.1,9.28,4.13,9.37,9.04Z"/><path class="cls-1" d="M105.56,40.72c-.12,4.91-4.53,9.12-9.42,9-4.91-.12-9.12-4.53-9-9.42.12-4.91,4.53-9.12,9.42-9,4.91.12,9.12,4.53,9,9.42Z"/><path class="cls-1" d="M365.47.19c3.16,0,6.33.03,9.49-.01,3.42-.05,3.95,1.58,2.84,4.46-1.87,4.87-6.95,8.23-12.58,8.2-5.57-.03-10.72-3.58-12.42-8.43-.93-2.65-.48-4.23,2.68-4.22,3.33.02,6.66,0,9.99,0Z"/><path class="cls-1" d="M1.01,34.53c0-2.49.11-5-.03-7.48-.24-4.24,1.69-5.02,5.16-3.38,4.66,2.19,7.26,6.03,7.16,11.07-.11,5.03-2.83,8.79-7.57,10.8-2.92,1.24-4.88.78-4.73-3.02.1-2.66.02-5.32.02-7.98Z"/><path class="cls-1" d="M133.73,53.64c4.14.25,7.85,4.48,7.46,8.5-.39,3.96-4.37,7.48-8.22,7.25-4.14-.25-7.85-4.48-7.46-8.5.39-3.96,4.37-7.48,8.22-7.25Z"/><path class="cls-1" d="M170.06,88.69c-3.93.15-7.04-2.75-6.88-6.2.17-3.69,2.28-5.84,5.94-6.15,3.44-.29,6.54,2.74,6.4,6.19-.15,3.72-2.37,5.66-5.47,6.16Z"/><path class="cls-1" d="M22.39,8.48c-2.03-.2-3.99-.63-5.7-1.73-1.98-1.27-4.44-2.85-3.69-5.34.67-2.23,3.47-1.13,5.33-1.21,3.49-.15,6.99-.07,10.49,0,1.09.02,2.52-.33,3,1.12.4,1.22-.4,2.24-1.13,3.14-2.14,2.64-5.07,3.64-8.3,4.01Z"/><path class="cls-1" d="M117.64.11c2.95.32,6.68-.96,6.65,3.87-.02,3.32-3.54,6.54-6.94,6.55-3.4,0-7.01-3.21-6.94-6.53.12-5.6,4.61-3.19,7.22-3.89Z"/><path class="cls-1" d="M206.45,109.1c-3.61-.43-5.72-2.31-5.57-5.86.14-3.28,2.2-5.25,5.49-5.2,3.55.05,5.56,2.21,5.45,5.74-.1,3.33-2.29,4.94-5.37,5.32Z"/><path class="cls-1" d="M254.94,30.43c-.44,3.62-2.33,5.71-5.88,5.55-3.28-.15-5.24-2.22-5.18-5.51.07-3.55,2.24-5.55,5.76-5.43,3.33.11,4.93,2.31,5.3,5.39Z"/><path class="cls-2" d="M77.63,333.68L141.34,48.41h34.06l63.7,285.27h-40.87l-12.02-61.3h-55.69l-12.02,61.3h-40.87ZM178.6,233.91l-20.03-103.37h-.8l-20.03,103.37h40.87Z"/><path class="cls-2" d="M260.33,333.68V48.41h40.87v285.27h-40.87Z"/></g></svg>