<?xml version="1.0" encoding="UTF-8"?><svg id="Layer_2" xmlns="http://www.w3.org/2000/svg" viewBox="0 0 1383.1 1009.12"><defs><style>.cls-1{fill:#44f300;}</style></defs><g id="Layer_1-2"><rect class="cls-1" x="763.45" y="884.85" width="245.87" height="124.27"/><polygon class="cls-1" points="1259.66 505.41 1259.66 382.44 1134.94 382.44 1134.94 262.03 1009.5 262.03 1009.5 124.27 884.06 124.27 884.06 262.03 512.7 262.03 512.7 124.27 387.26 124.27 387.26 262.03 248.88 262.03 248.88 382.44 124.44 382.44 124.44 505.41 0 505.41 0 880.88 125.44 880.88 125.44 628.38 248.88 628.38 248.88 706.67 248.14 706.67 248.14 898.41 373.58 898.41 373.58 1009.12 619.45 1009.12 619.45 884.85 373.58 884.85 373.58 754.83 1009.5 754.83 1009.5 898.41 1134.94 898.41 1134.94 754.83 1134.94 706.67 1134.94 628.38 1257.66 628.38 1257.66 880.88 1383.1 880.88 1383.1 505.41 1259.66 505.41"/><rect class="cls-1" x="254.44" width="132.82" height="124.27"/><rect class="cls-1" x="1009.5" width="132.82" height="124.27"/><rect x="880.37" y="382.44" width="132.82" height="124.27" transform="translate(1893.56 889.15) rotate(-180)"/><rect x="341.46" y="382.44" width="132.82" height="124.27" transform="translate(815.74 889.15) rotate(-180)"/></g></svg>