<?xml version="1.0" encoding="UTF-8"?><svg id="Layer_2" xmlns="http://www.w3.org/2000/svg" viewBox="0 0 1388.1 1009.12"><defs><style>.cls-1{fill:#44f300;}</style></defs><g id="Layer_1-2"><rect class="cls-1" x="250.88" y="262.03" width="886.06" height="492.8"/><rect class="cls-1" x="389.26" y="124.27" width="125.44" height="191.74"/><rect class="cls-1" x="886.06" y="124.27" width="125.44" height="191.74"/><rect class="cls-1" x="250.14" y="706.67" width="125.44" height="191.74"/><rect class="cls-1" x="1011.5" y="706.67" width="125.44" height="191.74"/><rect class="cls-1" x="1137.22" y="382.44" width="125.44" height="245.94"/><rect class="cls-1" x="1262.66" y="505.41" width="125.44" height="375.47"/><rect class="cls-1" x="125.44" y="382.44" width="125.44" height="245.94" transform="translate(376.32 1010.82) rotate(-180)"/><rect class="cls-1" x="0" y="505.41" width="125.44" height="375.47" transform="translate(125.44 1386.29) rotate(-180)"/><rect class="cls-1" x="375.58" y="884.85" width="245.87" height="124.27" transform="translate(997.02 1893.97) rotate(-180)"/><rect class="cls-1" x="765.45" y="884.85" width="245.87" height="124.27" transform="translate(1776.78 1893.97) rotate(-180)"/><rect class="cls-1" x="256.44" y="0" width="132.82" height="124.27" transform="translate(645.7 124.27) rotate(-180)"/><rect class="cls-1" x="1011.5" y="0" width="132.82" height="124.27" transform="translate(2155.81 124.27) rotate(-180)"/><rect x="882.37" y="382.44" width="132.82" height="124.27" transform="translate(1897.56 889.15) rotate(-180)"/><rect x="343.46" y="382.44" width="132.82" height="124.27" transform="translate(819.74 889.15) rotate(-180)"/></g></svg>