<?xml version="1.0" encoding="UTF-8"?><svg id="Layer_2" xmlns="http://www.w3.org/2000/svg" viewBox="0 0 2233.79 2514.21"><defs><style>.cls-1{fill:#44f300;}.cls-2{font-family:PressStart2P-Regular, 'Press Start 2P';font-size:300px;}</style></defs><g id="Layer_1-2"><rect class="cls-1" x="14.37" y="2369.97" width="2219.42" height="144.24"/><rect class="cls-1" width="2233.79" height="897.68"/><text class="cls-2" transform="translate(110.32 448.84)"><tspan x="0" y="0">Digital</tspan></text><rect class="cls-1" x="673.72" y="1216.78" width="886.06" height="492.8"/><rect class="cls-1" x="812.1" y="1079.02" width="125.44" height="191.74"/><rect class="cls-1" x="1308.9" y="1079.02" width="125.44" height="191.74"/><rect class="cls-1" x="672.98" y="1661.42" width="125.44" height="191.74"/><rect class="cls-1" x="1434.34" y="1661.42" width="125.44" height="191.74"/><rect class="cls-1" x="1560.06" y="1337.19" width="125.44" height="245.94"/><rect class="cls-1" x="1685.5" y="1460.16" width="125.44" height="375.47"/><rect class="cls-1" x="548.28" y="1337.19" width="125.44" height="245.94" transform="translate(1222 2920.32) rotate(-180)"/><rect class="cls-1" x="422.84" y="1460.16" width="125.44" height="375.47" transform="translate(971.12 3295.79) rotate(-180)"/><rect class="cls-1" x="798.42" y="1839.61" width="245.87" height="124.27" transform="translate(1842.71 3803.48) rotate(-180)"/><rect class="cls-1" x="1188.29" y="1839.61" width="245.87" height="124.27" transform="translate(2622.46 3803.48) rotate(-180)"/><rect class="cls-1" x="679.28" y="954.75" width="132.82" height="124.27" transform="translate(1491.38 2033.77) rotate(-180)"/><rect class="cls-1" x="1434.34" y="954.75" width="132.82" height="124.27" transform="translate(3001.5 2033.77) rotate(-180)"/><rect x="1305.21" y="1337.19" width="132.82" height="124.27" transform="translate(2743.24 2798.65) rotate(-180)"/><rect x="766.3" y="1337.19" width="132.82" height="124.27" transform="translate(1665.42 2798.65) rotate(-180)"/><text class="cls-2" transform="translate(110.32 817.49) scale(1.35 1)"><tspan x="0" y="0">Detox</tspan></text><text class="cls-2" transform="translate(170.36 2335.6) scale(1.65 1)"><tspan x="0" y="0">2025</tspan></text></g></svg>