<?xml version="1.0" encoding="UTF-8"?><svg id="Layer_2" xmlns="http://www.w3.org/2000/svg" viewBox="0 0 400.13 400"><defs><style>.cls-1,.cls-2,.cls-3{stroke-width:0px;}.cls-2{fill:#fff;}.cls-3{fill:#fff;}</style></defs><g id="Layer_1-2"><rect class="cls-3" x=".13" width="400" height="400"/><path class="cls-1" d="M96.98,209.92c5.74,5.79,10.37,12.09,9.47,20,6.85-1.1,13.56-2.19,19.4-3.13-.95-4.07-2.99-9.31-3.19-14.63-.22-5.67,3.02-10.44,7.65-13.97,7.01-5.33,16.7-5.34,23.72-.02,7.24,5.48,9.83,14.82,6.42,23.24-3.71,9.17-11.92,13.27-22.97,11.96,2.17,5.7,4.47,11.76,6.63,17.42,5.02-1.11,10.87-2.41,16.9-3.75-5.38-9.57-5.26-19.07,3.26-27.33,6.19-6.01,15.56-7.1,23.23-3.22,8.58,4.33,12.2,12.26,10.89,24.8,8.14-7.57,17.09-9.1,26.93-5.25.63.32,1.27.64,1.9.96,6.14,5.33,10.46,11.58,10.03,20,5.54-1.65,10.98-3.28,16.35-4.88-9.44-21.39,9.13-36.86,26.25-32.42-7.59-9.41-9.2-19.01-1.83-28.78,5.05-6.69,13.89-9.42,21.96-6.93,10.23,3.15,14.75,10.71,15.37,20.83,5.25-1.85,10.45-3.68,15.02-5.29-.72-5.71-1.46-11.53-2.17-17.1-11.8,5.98-20.39,5.49-27.37-1.94-6.07-6.46-7.11-15.96-2.59-23.58,4.58-7.72,13.71-11.35,22.43-8.91,9.47,2.64,14.34,10.32,14.46,21.7,6.39-2.2,13.12-4.52,20.1-6.93-3.88-6.74-5.01-14.91-.03-23.05,3.21-5.25,7.97-8.53,13.99-9.63,14.11-2.59,23.9,6.53,25.64,23.94,1.62-.82,3.17-1.61,5.14-2.61v248.36H.14v-4.73c0-74,.06-148-.14-221.99-.01-4.7,1.96-6.07,5.76-6.86,13.09-2.7,25.37,7.19,25.49,20.6.01,1.58,0,3.16,0,4.96,20.49-14.62,40.11,1.23,37.98,20.36,8.38-6.5,17.14-6.48,26.18-3l1.55.82ZM194.9,267.18c-.65-5.78-1.31-11.7-1.84-16.49-4.93,1.88-10.81,4.13-16.35,6.24,1.6,4.06,3.46,8.78,5.2,13.2,4.33-.98,8.97-2.03,13-2.95ZM308.47,236.26c-.86-4.61-1.77-9.44-2.56-13.66-5.55.9-11.3,1.83-16.08,2.61,1.98,4.62,4.28,9.95,6.52,15.17,3.76-1.28,8.09-2.74,12.13-4.11ZM26.57,218.26c-.61-5.13-1.24-10.35-1.76-14.72-4.85,1.83-9.8,3.7-14.66,5.53,1.37,3.75,2.86,7.87,4.26,11.7,4.29-.89,8.32-1.72,12.16-2.52ZM376.21,184c3.59-1.02,7.2-2.05,10.73-3.06-.33-4.19-.65-8.13-.94-11.75-4.9,1.25-9.89,2.53-14.81,3.79,1.59,3.5,3.28,7.21,5.02,11.02ZM61.48,225.69c-4.14,1.63-8.49,3.35-12.81,5.06,1.31,3.33,2.69,6.83,4.01,10.2,3.79-.55,7.39-1.06,10.83-1.56-.68-4.6-1.38-9.25-2.04-13.7ZM215.6,278.61c1.37,3.53,2.84,7.29,4.28,10.98,3.37-.86,6.68-1.69,9.96-2.53-.74-4.27-1.44-8.36-2.11-12.23-4.07,1.27-8.11,2.52-12.13,3.78ZM88.67,262.24c3.69-.82,7.14-1.59,10.39-2.32-.82-4.27-1.55-8.07-2.26-11.78-4.04,1.27-7.9,2.48-11.89,3.73,1.18,3.24,2.4,6.61,3.76,10.36ZM276.46,273.99c3.39-.92,6.54-1.76,9.74-2.63-.49-3.69-.97-7.27-1.44-10.81-4,1.02-8.07,2.06-12.17,3.11,1.2,3.21,2.46,6.58,3.86,10.32ZM125.66,282.12c3.04-.78,5.7-1.47,8.32-2.14-.41-3.71-.78-7.06-1.16-10.49-3.63,1.29-7.12,2.52-10.59,3.75,1.17,3.01,2.23,5.76,3.43,8.88ZM361.26,210.18c-3.17.73-5.82,1.35-8.58,1.99,1.12,2.79,2.09,5.22,3.12,7.77,2.29-.79,4.44-1.52,6.82-2.34-.45-2.46-.86-4.7-1.36-7.42ZM263.15,306.83c-.54-2.68-1.01-5.02-1.52-7.6-2.42.68-4.58,1.29-6.97,1.96,1.07,2.62,1.97,4.85,2.94,7.22,2.07-.59,3.76-1.08,5.55-1.59ZM335.17,257.01c2.11-.73,3.75-1.3,5.64-1.95-.49-2.24-.92-4.22-1.42-6.49-2.56.56-4.56.99-6.69,1.46.89,2.5,1.59,4.49,2.48,6.98ZM163.3,301.44c2.12-.53,4.08-1.01,6.2-1.54-.32-2.33-.58-4.18-.89-6.42-2.74.98-4.97,1.78-7.24,2.6.63,1.76,1.13,3.13,1.94,5.36ZM317.97,286.02c-2.02.53-3.7.97-5.49,1.45.72,2.11,1.33,3.91,2.01,5.91,1.94-.73,3.3-1.24,4.82-1.81-.44-1.81-.82-3.39-1.34-5.54Z"/><path class="cls-1" d="M227.2,236.99c-.63-.32-1.27-.64-1.9-.96-6.22-5.83-10.44-12.39-8.27-21.48,2.53-10.63,12.87-17.16,23.51-14.73,10.67,2.44,17.22,12.78,14.83,23.43-2.41,10.69-12.69,17.27-23.36,14.92-1.61-.35-3.21-.79-4.81-1.18Z"/><path class="cls-1" d="M96.98,209.92l-1.55-.82c-4.98-4.13-9.06-8.75-9.4-15.71-.57-11.84,8.2-20.92,19.98-20.55,11.28.35,19.47,10.13,18.2,21.72-1.21,10.98-12.1,18.54-23.35,16.21-1.29-.27-2.58-.57-3.87-.85Z"/><path class="cls-1" d="M68.27,189.98c-10.49.05-19.06-8.42-19.12-18.88-.05-10.49,8.42-19.06,18.89-19.11,10.49-.05,19.06,8.42,19.12,18.88.05,10.49-8.42,19.06-18.89,19.11Z"/><path class="cls-1" d="M355.55,130.03c-.03,10.26-8.13,18.31-18.39,18.28-10.26-.03-18.31-8.13-18.28-18.39.03-10.26,8.13-18.31,18.39-18.28,10.26.03,18.31,8.13,18.28,18.39Z"/><path class="cls-1" d="M49.48,149.89c.05,10.26-7.99,18.38-18.25,18.42-10.27.05-18.38-7.99-18.42-18.25-.05-10.26,7.99-18.38,18.25-18.42,10.27-.05,18.38,7.99,18.42,18.25Z"/><path class="cls-1" d="M216.73,197.76c.15,9.56-7.57,17.53-17.2,17.76-9.74.23-17.91-7.79-17.89-17.57.02-9.6,7.84-17.45,17.45-17.51,9.58-.06,17.49,7.71,17.64,17.32Z"/><path class="cls-1" d="M274.62,182.84c.08,9.7-7.58,17.48-17.28,17.56-9.7.08-17.48-7.58-17.56-17.28-.08-9.7,7.58-17.48,17.28-17.56,9.7-.08,17.48,7.57,17.56,17.28Z"/><path class="cls-1" d="M375.1,94.05c-.05,9.16-7.82,16.85-16.96,16.8-9.16-.05-16.85-7.82-16.8-16.96.05-9.16,7.82-16.85,16.96-16.8,9.16.05,16.85,7.82,16.8,16.96Z"/><path class="cls-1" d="M179.13,176.79c.11,8.67-6.96,15.97-15.64,16.15-8.86.18-16.31-7.15-16.27-16.01.03-8.68,7.21-15.86,15.89-15.9,8.67-.04,15.91,7.09,16.02,15.76Z"/><path class="cls-1" d="M399.94,133.25c-8.68,2.01-16.15-.83-20.69-7.69-4.34-6.55-4.23-15.21.27-21.63,4.59-6.55,11.96-9.22,20.42-7.24v36.55Z"/><path class="cls-1" d="M294.66,146.03c-.03,8.64-7,15.5-15.63,15.4-8.63-.1-15.45-7.13-15.28-15.75.17-8.44,6.94-15.11,15.38-15.15,8.63-.04,15.56,6.88,15.53,15.5Z"/><path class="cls-1" d="M89,149.23c-8.54-.07-15.11-6.72-15.1-15.29.02-8.75,6.87-15.41,15.66-15.22,8.5.18,14.98,6.96,14.85,15.54-.13,8.52-6.85,15.04-15.41,14.97Z"/><path class="cls-1" d="M379.1,41.84c8.53-.05,15.2,6.51,15.25,15,.05,8.52-6.51,15.19-15,15.25-8.53.05-15.2-6.51-15.25-15-.05-8.52,6.51-15.19,15-15.25Z"/><path class="cls-1" d="M141.51,155.76c.11,8.72-6.66,15.57-15.38,15.56-8.52-.02-15.2-6.62-15.31-15.13-.11-8.72,6.66-15.57,15.38-15.56,8.52.02,15.2,6.62,15.31,15.13Z"/><path class="cls-1" d="M53.09,97.9c8.5-.03,15.16,6.64,15.13,15.13-.03,8.48-6.74,15.09-15.26,15-8.27-.08-14.8-6.61-14.88-14.88-.08-8.51,6.52-15.22,15.01-15.25Z"/><path class="cls-1" d="M30.52,91.78c.1,8.18-6.26,14.6-14.44,14.56-7.98-.03-14.22-6.22-14.31-14.19-.1-8.18,6.26-14.6,14.44-14.56,7.98.03,14.22,6.22,14.31,14.19Z"/><path class="cls-1" d="M314.28,109.19c-.1,7.93-6.54,14.06-14.54,13.85-7.7-.21-13.7-6.51-13.6-14.29.1-7.93,6.54-14.06,14.54-13.85,7.7.21,13.7,6.5,13.6,14.29Z"/><path class="cls-1" d="M221.07,147.4c7.45-.08,13.7,6.13,13.7,13.59,0,7.46-6.27,13.66-13.72,13.57-7.29-.09-13.3-6.04-13.45-13.34-.16-7.44,5.99-13.75,13.47-13.82Z"/><path class="cls-1" d="M334.42,72.02c-.02,7.48-5.78,13.18-13.26,13.16-7.48-.02-13.19-5.77-13.16-13.26.02-7.48,5.77-13.18,13.26-13.16,7.48.02,13.19,5.77,13.16,13.26Z"/><path class="cls-1" d="M355.08,36.06c-.06,6.87-5.97,12.74-12.83,12.76-7.04.02-13.12-6.21-12.89-13.2.22-6.88,6.26-12.66,13.08-12.51,6.87.14,12.7,6.12,12.64,12.95Z"/><path class="cls-1" d="M37.34,66.82c-6.28.12-11.84-5.2-12.04-11.54-.21-6.47,5.41-12.21,11.91-12.17,6.32.04,11.75,5.47,11.8,11.78.04,6.3-5.34,11.8-11.66,11.92Z"/><path class="cls-1" d="M85.91,76.12c-.1,6.32-5.63,11.7-11.91,11.61-6.32-.1-11.71-5.63-11.61-11.91.1-6.32,5.63-11.71,11.91-11.61,6.32.1,11.71,5.63,11.61,11.91Z"/><path class="cls-1" d="M110.18,86.77c6.46,0,11.3,4.98,11.18,11.47-.12,6.23-4.95,10.94-11.22,10.93-6.46,0-11.3-4.98-11.18-11.47.12-6.23,4.95-10.94,11.22-10.93Z"/><path class="cls-1" d="M184.14,129.12c5.8-.03,10.87,5,10.9,10.81.03,5.8-5,10.87-10.81,10.89-5.83.03-10.87-4.97-10.9-10.81-.03-5.8,5-10.87,10.81-10.89Z"/><path class="cls-1" d="M157.78,118.97c0,5.69-4.78,10.53-10.48,10.61-5.87.08-10.89-5-10.73-10.86.15-5.71,5.05-10.43,10.73-10.36,5.71.08,10.48,4.91,10.48,10.61Z"/><path class="cls-1" d="M306.12,4.01c5.33-.05,9.92,4.39,10.04,9.73.13,5.53-4.57,10.26-10.11,10.17-5.34-.09-9.81-4.64-9.79-9.98.02-5.35,4.51-9.86,9.86-9.92Z"/><path class="cls-1" d="M252.14,125.05c-.05,5.35-4.56,9.84-9.9,9.87-5.54.03-10.19-4.76-10-10.28.19-5.35,4.82-9.74,10.15-9.62,5.34.12,9.79,4.69,9.75,10.03Z"/><path class="cls-1" d="M58.36,9.09c5.28.13,9.79,4.84,9.66,10.08-.13,5.28-4.84,9.79-10.08,9.66-5.28-.13-9.79-4.84-9.66-10.08.13-5.28,4.84-9.79,10.08-9.66Z"/><path class="cls-1" d="M399.93,33.75c-8.25-.58-13.71-6.17-13.72-13.78,0-7.61,5.42-13.19,13.72-13.82v27.6Z"/><path class="cls-1" d="M.37,144.86v-31.68c7.08,1.61,11.76,7.67,11.95,15.22.2,8.05-4.25,14.33-11.95,16.46Z"/><path class="cls-1" d="M284.45,41.92c5.07.13,8.99,4.32,8.8,9.42-.19,5.06-4.43,8.92-9.54,8.67-4.86-.24-8.61-4.27-8.55-9.16.06-5.08,4.19-9.05,9.29-8.92Z"/><path class="cls-1" d="M351.49.11h25.23c-.68,6.92-5.28,11.46-11.81,11.82-6.79.37-11.85-3.94-13.43-11.82Z"/><path class="cls-1" d="M271.98,87.75c.14,4.73-4.06,9.02-8.81,9-4.56-.02-8.61-3.98-8.75-8.56-.14-4.73,4.06-9.02,8.81-9,4.56.02,8.61,3.98,8.75,8.56Z"/><path class="cls-1" d="M95.07,48.74c-4.76-.06-8.91-4.4-8.69-9.12.21-4.58,4.32-8.5,8.87-8.44,4.76.06,8.91,4.4,8.69,9.12-.21,4.58-4.32,8.5-8.87,8.44Z"/><path class="cls-1" d="M.29,44.95v-21.68c6.23-.38,10.78,3.75,11.13,9.95.37,6.6-3.82,11.21-11.13,11.72Z"/><path class="cls-1" d="M131.97,68.17c-4.15-.1-7.11-3.23-7.01-7.4.1-4.15,3.23-7.11,7.4-7.01,4.15.1,7.11,3.23,7.01,7.4-.1,4.15-3.23,7.11-7.4,7.01Z"/><path class="cls-1" d="M174.84,82.95c-2.14,1.61-4.06,3.91-6.47,4.65-2.9.9-6.23-2.63-5.97-5.76.28-3.43,2.44-5.99,5.74-5.48,2.39.37,4.45,2.81,6.65,4.32.02.75.03,1.51.05,2.26Z"/><path class="cls-1" d="M108.72.08h14.61c-1.27,3.12-1.66,6.4-3.49,7.83-1.58,1.23-5.5,1.32-7.13.16-1.9-1.37-2.44-4.64-3.99-7.99Z"/><path class="cls-1" d="M11.31.13h19.34c-1.3,4.64-4.36,6.66-8.61,7.02-4.98.42-8.42-1.81-10.73-7.02Z"/><path class="cls-1" d="M211.07,104.11c-1.91,1.31-3.69,3.41-5.76,3.75-3.27.54-5.71-1.88-4.96-5.05.45-1.92,3.09-4.38,4.97-4.59,1.76-.2,3.82,2.25,5.75,3.54,0,.79,0,1.57.01,2.36Z"/><path class="cls-1" d="M254.03,31.32c-1.96,1.24-4.08,3.63-5.84,3.39-1.87-.25-4.43-2.79-4.84-4.72-.68-3.21,1.85-5.54,5.09-4.92,2.06.39,3.79,2.55,5.67,3.92-.03.78-.06,1.55-.08,2.33Z"/><path class="cls-1" d="M153.26,30.31c-2.11-3-4.31-4.76-4.15-6.26.17-1.6,2.56-4.1,4-4.12,1.45-.02,3.91,2.4,4.12,4,.2,1.5-1.94,3.32-3.97,6.38Z"/><path class="cls-1" d="M231.38,67.43c-2.6,1.45-4.2,3.05-5.61,2.9-1.18-.13-2.15-2.29-3.21-3.56,1.35-1.13,2.62-2.97,4.09-3.16,1.09-.14,2.45,1.88,4.72,3.82Z"/><path class="cls-2" d="M63.26,352L126.96,66.73h34.06l63.7,285.27h-40.87l-12.02-61.3h-55.69l-12.02,61.3h-40.87ZM164.23,252.23l-20.03-103.37h-.8l-20.03,103.37h40.87Z"/><path class="cls-2" d="M245.96,352V66.73h40.87v285.27h-40.87Z"/></g></svg>